<svg width="44" height="48" viewBox="0 0 44 48" fill="none" xmlns="http://www.w3.org/2000/svg">
<path d="M9.36401 14.4692H12.1757V17.2809H9.36401V14.4692Z" fill="#5A73EF"/>
<path d="M9.36401 25.7158H12.1757V28.5275H9.36401V25.7158Z" fill="#5A73EF"/>
<path d="M34.2258 27.4835C35.2633 27.4835 36.2699 27.6194 37.2277 27.8753V4.21785C37.2277 3.44183 36.5979 2.81201 35.8219 2.81201H31.5997C31.5997 6.47188 28.6221 9.44944 24.9622 9.44944H13.1944C11.365 9.44944 9.70513 8.70529 8.50361 7.50282C7.30115 6.3013 6.55699 4.64148 6.55699 2.81201H2.33479C1.55877 2.81201 0.928955 3.44183 0.928955 4.21785V39.5512H22.577C22.3108 33.0694 27.5733 27.4835 34.2258 27.4835ZM27.2322 11.6575H29.2613C30.0373 11.6575 30.6671 12.2874 30.6671 13.0634C30.6671 13.8394 30.0373 14.4692 29.2613 14.4692H27.2322C26.4562 14.4692 25.8263 13.8394 25.8263 13.0634C25.8263 12.2874 26.4562 11.6575 27.2322 11.6575ZM19.2049 11.6575H22.1712C22.9472 11.6575 23.577 12.2874 23.577 13.0634C23.577 13.8394 22.9472 14.4692 22.1712 14.4692H19.2049C18.4288 14.4692 17.799 13.8394 17.799 13.0634C17.799 12.2874 18.4288 11.6575 19.2049 11.6575ZM19.2049 17.2809H29.2613C30.0373 17.2809 30.6671 17.9107 30.6671 18.6867C30.6671 19.4637 30.0373 20.0926 29.2613 20.0926H19.2049C18.4288 20.0926 17.799 19.4637 17.799 18.6867C17.799 17.9107 18.4288 17.2809 19.2049 17.2809ZM14.9873 29.9334C14.9873 30.7104 14.3575 31.3393 13.5815 31.3393H7.95815C7.18212 31.3393 6.55231 30.7104 6.55231 29.9334V24.3101C6.55231 23.5341 7.18212 22.9042 7.95815 22.9042H13.5815C14.3575 22.9042 14.9873 23.5341 14.9873 24.3101V29.9334ZM14.9873 18.6867C14.9873 19.4637 14.3575 20.0926 13.5815 20.0926H7.95815C7.18212 20.0926 6.55231 19.4637 6.55231 18.6867V13.0634C6.55231 12.2874 7.18212 11.6575 7.95815 11.6575H13.5815C14.3575 11.6575 14.9873 12.2874 14.9873 13.0634V18.6867ZM17.799 24.4619C17.799 23.6859 18.4288 23.0561 19.2049 23.0561H29.2613C30.0373 23.0561 30.6671 23.6859 30.6671 24.4619C30.6671 25.2379 30.0373 25.8678 29.2613 25.8678H19.2049C18.4288 25.8678 17.799 25.2379 17.799 24.4619Z" fill="#5A73EF"/>
<path d="M13.1946 6.63743H24.9625C27.0721 6.63743 28.7882 4.92137 28.7882 2.81168V1.40584C28.7882 0.629815 28.1593 0 27.3824 0H10.7747C9.99777 0 9.3689 0.629815 9.3689 1.40584V2.81168C9.3689 4.92137 11.085 6.63743 13.1946 6.63743Z" fill="#5A73EF"/>
<path d="M34.2259 30.2949C29.3486 30.2949 25.3804 34.2631 25.3804 39.1405C25.3804 44.03 29.3439 47.986 34.2259 47.986C39.2044 47.986 43.0714 43.9119 43.0714 39.1405C43.0714 34.3681 39.2035 30.2949 34.2259 30.2949ZM38.7424 37.9633L34.3993 42.3064C33.8501 42.8556 32.9588 42.8537 32.4114 42.3064L29.7104 39.6044C29.1611 39.0561 29.1611 38.1657 29.7104 37.6165C30.2586 37.0673 31.149 37.0673 31.6982 37.6165L33.4058 39.3242L36.7536 35.9754C37.3028 35.4262 38.1932 35.4262 38.7424 35.9754C39.2916 36.5247 39.2916 37.4141 38.7424 37.9633Z" fill="#5A73EF"/>
<path d="M26.6492 47.9997C22.2302 47.9988 14.8196 47.9857 2.33479 47.9857C1.55877 47.9857 0.928955 47.3558 0.928955 46.5798V42.3623H23.0175C23.6531 44.5875 24.944 46.5462 26.6492 47.9997Z" fill="#5A73EF"/>
</svg>
